<svg width="32" height="32" viewBox="0 0 32 32" fill="none" xmlns="http://www.w3.org/2000/svg">
<g filter="url(#filter0_d_8943_9039)">
<rect x="4" y="2" width="24" height="24" rx="12" fill="#13488A"/>
</g>
<path d="M11.7998 17.7133V19.9998L12.7087 19.4479L15.5657 17.7133H18.3992C19.0609 17.7133 19.5991 17.1687 19.5991 16.4991V11.642C19.5991 10.9723 19.0609 10.4277 18.3992 10.4277H11.1999C10.5381 10.4277 10 10.9723 10 11.642V16.4991C10 17.1687 10.5381 17.7133 11.1999 17.7133H11.7998ZM11.1999 11.642H18.3992V16.4991H15.2333L12.9997 17.8554V16.4991H11.1999V11.642Z" fill="white"/>
<path d="M20.8015 8H13.6022C12.9405 8 12.4023 8.5446 12.4023 9.21427H19.6016C20.2634 9.21427 20.8015 9.75886 20.8015 10.4285V15.2856C21.4633 15.2856 22.0014 14.741 22.0014 14.0713V9.21427C22.0014 8.5446 21.4633 8 20.8015 8Z" fill="white"/>
<defs>
<filter id="filter0_d_8943_9039" x="0" y="0" width="32" height="32" filterUnits="userSpaceOnUse" color-interpolation-filters="sRGB">
<feFlood flood-opacity="0" result="BackgroundImageFix"/>
<feColorMatrix in="SourceAlpha" type="matrix" values="0 0 0 0 0 0 0 0 0 0 0 0 0 0 0 0 0 0 127 0" result="hardAlpha"/>
<feOffset dy="2"/>
<feGaussianBlur stdDeviation="2"/>
<feComposite in2="hardAlpha" operator="out"/>
<feColorMatrix type="matrix" values="0 0 0 0 0 0 0 0 0 0 0 0 0 0 0 0 0 0 0.05 0"/>
<feBlend mode="normal" in2="BackgroundImageFix" result="effect1_dropShadow_8943_9039"/>
<feBlend mode="normal" in="SourceGraphic" in2="effect1_dropShadow_8943_9039" result="shape"/>
</filter>
</defs>
</svg>
