<svg width="24" height="24" viewBox="0 0 24 24" fill="none" xmlns="http://www.w3.org/2000/svg">
<path d="M12 0C5.383 0 0 5.383 0 12C0 18.617 5.383 24 12 24C18.617 24 24 18.617 24 12C24 5.383 18.617 0 12 0ZM20.98 10.196L20.941 10.391C20.754 11.323 19.929 11.999 18.98 11.999H16.843C15.924 11.999 15.126 11.376 14.903 10.484L14.625 9.371C15.007 9.129 15.451 8.999 15.915 8.999H20C20.301 8.999 20.583 9.133 20.773 9.365C20.964 9.597 21.04 9.9 20.981 10.195L20.98 10.196ZM12 2C15.728 2 18.98 4.054 20.699 7.086C20.472 7.032 20.238 7 19.999 7H15.914C14.89 7 13.932 7.364 13.149 8H10.852C10.069 7.364 9.11 7 8.087 7H4.002C3.763 7 3.529 7.032 3.302 7.086C5.022 4.054 8.274 2 12.001 2H12ZM3.228 9.366C3.418 9.134 3.7 9 4.001 9H8.086C8.55 9 8.994 9.13 9.376 9.372L9.098 10.485C8.875 11.377 8.077 12 7.158 12H5.021C4.071 12 3.246 11.323 3.06 10.392L3.021 10.197C2.962 9.902 3.038 9.599 3.229 9.367L3.228 9.366ZM12 22C6.705 22 2.371 17.861 2.033 12.65C2.774 13.482 3.848 14 5.021 14H7.158C8.997 14 10.593 12.754 11.038 10.97L11.281 10H12.72L12.963 10.97C13.408 12.754 15.004 14 16.843 14H18.98C20.152 14 21.227 13.483 21.968 12.65C21.63 17.86 17.296 22 12.001 22H12ZM16.894 16.279C17.291 16.663 17.304 17.296 16.92 17.693C14.699 20 11.915 20 11 20C10.448 20 10 19.553 10 19C10 18.447 10.448 18 11 18C11.779 18 13.848 18 15.479 16.307C15.863 15.908 16.495 15.897 16.893 16.28L16.894 16.279Z" fill="black"/>
</svg>
