<svg width="20" height="20" viewBox="0 0 20 20" fill="none" xmlns="http://www.w3.org/2000/svg">
<path d="M9.73678 11.4909C10.6088 11.4909 11.3157 10.784 11.3157 9.91196C11.3157 9.03993 10.6088 8.33301 9.73678 8.33301C8.86476 8.33301 8.15784 9.03993 8.15784 9.91196C8.15784 10.784 8.86476 11.4909 9.73678 11.4909Z" fill="#13488A"/>
<path d="M15.3946 11.4909C16.2666 11.4909 16.9736 10.784 16.9736 9.91196C16.9736 9.03993 16.2666 8.33301 15.3946 8.33301C14.5226 8.33301 13.8157 9.03993 13.8157 9.91196C13.8157 10.784 14.5226 11.4909 15.3946 11.4909Z" fill="#13488A"/>
<path d="M4.07895 11.4909C4.95098 11.4909 5.65789 10.784 5.65789 9.91196C5.65789 9.03993 4.95098 8.33301 4.07895 8.33301C3.20692 8.33301 2.5 9.03993 2.5 9.91196C2.5 10.784 3.20692 11.4909 4.07895 11.4909Z" fill="#13488A"/>
</svg>
